<svg width="18" height="19" viewBox="0 0 18 19" fill="none" xmlns="http://www.w3.org/2000/svg">
<path opacity="0.4" d="M15.75 7.63222V4.62432C15.75 3.69014 15.3265 3.3125 14.2743 3.3125H11.6007C10.5485 3.3125 10.125 3.69014 10.125 4.62432V7.6256C10.125 8.5664 10.5485 8.93741 11.6007 8.93741H14.2743C15.3265 8.94404 15.75 8.5664 15.75 7.63222Z" fill="#DDFFEF"/>
<path d="M15.75 14.2118V11.5382C15.75 10.486 15.3265 10.0625 14.2743 10.0625H11.6007C10.5485 10.0625 10.125 10.486 10.125 11.5382V14.2118C10.125 15.264 10.5485 15.6875 11.6007 15.6875H14.2743C15.3265 15.6875 15.75 15.264 15.75 14.2118Z" fill="#DDFFEF"/>
<path d="M7.875 7.63222V4.62432C7.875 3.69014 7.45147 3.3125 6.39926 3.3125H3.72574C2.67353 3.3125 2.25 3.69014 2.25 4.62432V7.6256C2.25 8.5664 2.67353 8.93741 3.72574 8.93741H6.39926C7.45147 8.94404 7.875 8.5664 7.875 7.63222Z" fill="#DDFFEF"/>
<path opacity="0.4" d="M7.875 14.2118V11.5382C7.875 10.486 7.45147 10.0625 6.39926 10.0625H3.72574C2.67353 10.0625 2.25 10.486 2.25 11.5382V14.2118C2.25 15.264 2.67353 15.6875 3.72574 15.6875H6.39926C7.45147 15.6875 7.875 15.264 7.875 14.2118Z" fill="#DDFFEF"/>
</svg>
